#tb 0: 1/25
0,          0,          0,        1,   599040, 0x95a24137
0,          1,          1,        1,   599040, 0x7d7f2b75
0,          2,          2,        1,   599040, 0xd9fb2120
0,          3,          3,        1,   599040, 0x14d50590
0,          4,          4,        1,   599040, 0xe3d1b70e
0,          5,          5,        1,   599040, 0x57708a86
0,          6,          6,        1,   599040, 0xae56a720
0,          7,          7,        1,   599040, 0x74c18679
0,          8,          8,        1,   599040, 0x6422d2a7
0,          9,          9,        1,   599040, 0xf587702b
0,         10,         10,        1,   599040, 0x0f630fe0
0,         11,         11,        1,   599040, 0x4e3537dd
0,         12,         12,        1,   599040, 0xa645e9c1
0,         13,         13,        1,   599040, 0x35ab4155
0,         14,         14,        1,   599040, 0x4b78ba34
0,         15,         15,        1,   599040, 0xa9a9e572
0,         16,         16,        1,   599040, 0x6d57f10f
0,         17,         17,        1,   599040, 0xffb8e333
0,         18,         18,        1,   599040, 0x7b2d6319
0,         19,         19,        1,   599040, 0xcf3319aa
0,         20,         20,        1,   599040, 0xb0d097ee
0,         21,         21,        1,   599040, 0xf042f780
0,         22,         22,        1,   599040, 0xfafafdcb
0,         23,         23,        1,   599040, 0xc8c1c452
0,         24,         24,        1,   599040, 0x83c4d488
0,         25,         25,        1,   599040, 0x81a8fd08
0,         26,         26,        1,   599040, 0x2cb0c333
0,         27,         27,        1,   599040, 0xa7bf4e52
0,         28,         28,        1,   599040, 0x5b7ed8e9
0,         29,         29,        1,   599040, 0x4ff03464
0,         30,         30,        1,   599040, 0x54a700c2
0,         31,         31,        1,   599040, 0x7dbb63aa
0,         32,         32,        1,   599040, 0xda26288e
0,         33,         33,        1,   599040, 0x8074da41
0,         34,         34,        1,   599040, 0xa32b2ab2
0,         35,         35,        1,   599040, 0x51b457fb
0,         36,         36,        1,   599040, 0x05e34953
0,         37,         37,        1,   599040, 0x68c762d6
0,         38,         38,        1,   599040, 0x11bf469e
0,         39,         39,        1,   599040, 0xc2fdadaf
0,         40,         40,        1,   599040, 0x05588da0
0,         41,         41,        1,   599040, 0x8855f927
0,         42,         42,        1,   599040, 0x11c85d5a
0,         43,         43,        1,   599040, 0x7a0aede5
0,         44,         44,        1,   599040, 0x39dc4f7d
0,         45,         45,        1,   599040, 0x388f81d6
0,         46,         46,        1,   599040, 0x2afa830d
0,         47,         47,        1,   599040, 0xd7f26886
0,         48,         48,        1,   599040, 0xb8e12aef
0,         49,         49,        1,   599040, 0x73f7582c
